<svg width="100" height="100" viewBox="0 0 100 100" fill="none" xmlns="http://www.w3.org/2000/svg">
<mask id="mask0_9_67" style="mask-type:alpha" maskUnits="userSpaceOnUse" x="0" y="0" width="100" height="100">
<ellipse cx="50" cy="50" rx="50" ry="50" fill="#D9D9D9"/>
</mask>
<g mask="url(#mask0_9_67)">
<path d="M48.7958 12.3246C47.9069 12.7142 47.3648 13.9044 46.3892 17.5184C45.2184 21.9763 44.0909 23.1017 41.0122 22.9934L39.4511 22.9285L38.8657 21.4137C38.5405 20.5697 37.9985 19.3362 37.6516 18.6653C37.1529 17.6482 37.0878 17.3452 37.283 16.999C37.4998 16.696 37.4564 16.4363 37.1312 15.7655C36.2423 13.9477 34.0091 13.3417 32.8166 14.5969C32.2746 15.1812 32.1662 15.4625 32.1011 16.7393C32.0144 18.081 32.1011 18.4056 32.8816 20.2451C34.0524 22.9718 34.2909 23.9889 34.1175 25.2874C33.944 26.7373 33.337 27.7977 32.1662 28.8364C30.475 30.308 26.1821 32.2989 22.4529 33.3377C21.152 33.6839 20.6967 34.1817 21.2604 34.5928C21.7374 34.9391 22.3445 36.1942 22.0626 36.2808C21.694 36.4106 23.3418 38.1419 24.4259 38.7911C25.3582 39.3321 25.6401 39.3754 27.6131 39.3754C29.4993 39.3754 29.8896 39.3105 30.5834 38.8777C31.0604 38.5747 31.906 38.315 32.5998 38.2501C34.1392 38.0986 34.2693 38.4016 33.402 40.0679C33.0551 40.7604 32.2095 42.9894 31.5157 45.0236L30.2799 48.7242L30.7569 50.4338C30.9954 51.3859 31.5157 52.7709 31.906 53.55C32.448 54.6753 32.7082 54.9783 33.1418 55.0216C33.4454 55.0432 34.2259 55.1731 34.8763 55.3029C35.8737 55.4977 36.2206 55.476 37.0011 55.1731C37.9334 54.7835 40.0365 52.7277 40.6219 51.624C40.8387 51.1912 41.3591 50.8233 42.3564 50.4121C43.137 50.0659 43.8091 49.8495 43.8524 49.8927C44.2861 50.4121 47.3648 56.9259 48.5356 59.8258C53.0454 70.8192 63.3874 88.3481 73.2524 101.787C80.5374 111.677 90.1423 122.865 97.2971 129.79C98.8799 131.305 100.116 132.625 100.051 132.733C99.9856 132.841 100.181 133.49 100.463 134.161C101.72 136.953 101.98 140.048 101.221 143.056C100.94 144.224 100.072 146.237 98.5113 149.31C97.2538 151.798 96.1263 154.33 95.9962 154.893C95.8445 155.521 95.7794 156.884 95.8445 158.269C95.9529 160.303 96.083 160.974 96.9936 163.614C97.5356 165.259 98.3378 167.271 98.7281 168.051C99.3785 169.327 99.4219 169.479 99.0967 169.695C98.7715 169.912 98.8365 170.128 99.6821 171.751C100.202 172.725 101.221 174.694 101.959 176.101L103.281 178.654L103.26 180.537C103.194 184.259 103.151 184.497 101.937 186.229C100.224 188.739 98.598 191.682 95.3458 198.153C93.6763 201.464 91.2046 206.051 89.817 208.324C88.4511 210.596 86.8684 213.344 86.3263 214.405C85.2206 216.612 83.8763 220.01 83.8763 220.616C83.8763 220.81 83.6812 221.135 83.4644 221.286C83.0741 221.568 83.0524 221.698 83.3343 224.533C84.0064 231.523 84.2016 236.11 84.1799 245.394C84.1582 250.631 84.0498 256.106 83.9631 257.578C83.8547 259.049 83.833 260.348 83.898 260.478C83.9847 260.586 83.9631 261.04 83.8546 261.495C83.7679 261.928 83.5294 263.983 83.356 266.061C83.1608 268.138 82.944 270.129 82.879 270.497C82.6622 271.709 81.86 273.938 81.0361 275.756C80.5808 276.73 80.2555 277.704 80.3206 277.92C80.4073 278.18 80.3856 278.201 80.2555 278.007C80.1038 277.812 79.9954 277.877 79.8002 278.288C79.475 279.002 79.475 279.413 79.7785 279.521C79.9303 279.565 79.7135 280.236 79.2148 281.296C78.7162 282.378 78.456 283.2 78.4993 283.568C78.5427 283.893 78.456 284.282 78.3042 284.412C77.5454 285.126 78.998 285.862 81.0577 285.84C82.1418 285.819 82.7272 285.689 83.6378 285.235C85.3073 284.369 86.9985 282.594 87.844 280.841C88.4945 279.435 88.5378 279.218 88.6679 275.907C88.733 274.003 88.8631 272.25 88.9715 272.012C89.0799 271.774 89.7303 270.649 90.4024 269.523C92.0936 266.732 92.1803 266.256 91.8768 262.772C91.5732 259.266 91.725 253.812 92.3538 246.801C92.5923 244.009 92.8741 238.837 92.9608 235.331C93.1343 227.973 93.0042 228.45 95.5626 224.511C96.3865 223.256 97.167 221.871 97.3405 221.438C97.5573 220.767 97.7091 220.659 98.0777 220.745C98.4896 220.854 98.9449 220.183 102.067 215.011C106.078 208.302 108.702 204.299 110.978 201.377C112.626 199.278 116.398 195.361 117.634 194.474L118.35 193.976L118.588 194.56C118.697 194.907 119.434 197.612 120.193 200.598C122.036 207.761 123.705 216.136 124.225 220.94C125.158 229.64 125.331 230.981 125.743 232.951C126.589 237.127 128.367 241.391 129.256 241.391C129.624 241.391 129.667 241.499 129.537 242.235C129.472 242.689 129.559 244.94 129.754 247.255C129.928 249.571 130.166 254.072 130.275 257.296C130.383 260.499 130.687 264.892 130.925 267.013C131.684 273.657 131.532 275.496 129.819 280.863C128.648 284.585 127.89 287.94 128.15 288.286C128.497 288.719 130.73 289.065 132.443 288.935C135.066 288.719 137.429 287.723 138.297 286.468C138.795 285.732 138.839 285.494 138.839 282.919C138.839 281.123 138.752 280.062 138.6 279.911C138.427 279.738 138.405 279.435 138.535 278.98C138.622 278.591 138.86 276.795 139.056 274.955C139.316 272.293 139.337 271.558 139.121 271.298C138.969 271.125 138.817 270.324 138.817 269.545C138.795 268.766 138.535 267.1 138.232 265.845C137.039 260.846 136.497 253.812 136.606 244.593C136.649 239.616 136.736 238.145 136.952 238.145C137.581 238.145 137.169 232.778 135.803 223.191C134.394 213.215 134.242 205.857 135.261 193.24C135.76 186.921 135.933 185.579 136.324 185.45C136.714 185.341 139.771 186.142 141.462 186.813C144.649 188.09 148.812 188.782 150.46 188.328C150.937 188.198 151.002 188.241 151.002 188.631C150.98 189.28 151.717 189.453 155.555 189.605C159.349 189.756 161.214 189.453 163.859 188.241C165.29 187.57 165.529 187.527 165.919 187.808C167.155 188.609 168.195 191.682 169.54 198.585C170.494 203.498 170.624 203.909 172.987 209.471C175.112 214.47 175.632 215.898 176.521 219.425C178.993 229.034 180.142 238.101 180.25 248.943C180.315 254.029 180.402 255.782 180.597 255.89C180.792 256.02 180.792 256.344 180.51 257.34C180.315 258.032 180.055 259.764 179.925 261.192C179.34 268.16 178.537 271.471 176.76 274.219C176.348 274.869 176.044 275.518 176.087 275.648C176.217 275.972 175.35 277.184 174.288 278.18C172.857 279.543 171.513 283.72 172.25 284.455C172.445 284.65 172.727 284.65 173.334 284.477C173.811 284.347 175.545 284.239 177.215 284.239C180.684 284.239 181.508 283.979 182.657 282.659C183.763 281.426 184.131 279.998 184.131 276.838C184.153 274.155 184.175 274.068 184.63 274.068C185.649 274.068 187.123 271.514 187.513 269.047C187.622 268.268 187.709 266.169 187.709 264.395C187.687 262.642 187.752 260.651 187.839 259.98C187.969 258.963 187.925 258.725 187.644 258.552C187.318 258.379 187.318 258.249 187.6 257.296C188.186 255.327 188.598 252.6 189.14 247.017C190.007 238.166 190.766 234.509 192.5 230.852C193.302 229.142 193.302 229.077 192.912 228.796C192.652 228.623 190.419 223.559 187.08 215.552C184.088 208.432 181.551 202.416 181.421 202.178C181.291 201.94 181.226 201.702 181.291 201.658C181.464 201.485 185.345 208.432 187.882 213.474C189.248 216.158 190.506 218.452 190.679 218.603C190.874 218.755 191.221 219.815 191.525 221.2C192.132 224.035 192.5 225.29 194.668 231.977C196.381 237.279 198.528 245.459 200.067 252.644C200.631 255.197 201.043 256.734 201.26 256.885C201.541 257.08 201.606 257.686 201.606 260.348C201.606 265.304 201.303 267.922 200.327 271.796C199.85 273.7 199.395 275.713 199.33 276.254C199.243 277.011 199.091 277.292 198.788 277.379C198.333 277.487 198.202 278.072 198.571 278.288C198.701 278.353 198.766 278.634 198.766 278.894C198.744 279.348 198.723 279.348 198.614 278.937C198.549 278.677 198.311 279.435 198.029 280.777C197.769 282.032 197.422 283.503 197.27 284.066C197.097 284.629 197.032 285.148 197.118 285.235C197.183 285.321 197.617 285.213 198.051 284.996C198.506 284.78 199.785 284.477 200.934 284.304C202.062 284.131 203.319 283.85 203.688 283.676C204.663 283.2 206.008 281.815 206.702 280.495C207.287 279.456 207.309 279.283 207.265 276.795C207.244 275.345 207.113 273.743 207.005 273.224C206.81 272.38 206.853 272.099 207.33 271.06C208.089 269.35 208.891 266.321 209.26 263.832C209.498 262.274 209.694 261.625 209.975 261.408C210.344 261.149 210.322 260.91 209.238 256.409C206.615 245.546 206.225 239.465 207.721 232.193C208.089 230.376 208.198 229.055 208.219 226.675V223.515L207.352 221.806C206.636 220.378 206.398 220.075 205.986 220.096C205.574 220.118 205.444 219.923 205.14 218.906C204.967 218.235 204.338 216.612 203.775 215.314C199.59 205.684 198.961 193.457 201.975 180.645C202.3 179.304 202.625 178.2 202.734 178.2C202.821 178.2 202.907 178.351 202.907 178.525C202.907 178.719 203.731 181.1 204.729 183.848C207.135 190.362 207.525 191.812 208.458 197.287C208.891 199.819 209.52 203 209.867 204.342C210.214 205.684 210.496 207.069 210.496 207.415C210.496 207.739 210.149 209.233 209.715 210.704C209.13 212.717 208.935 213.734 208.956 214.924C208.956 216.396 209.433 218.755 209.867 219.577C209.975 219.772 210.366 221.092 210.734 222.498C211.125 223.905 211.623 225.723 211.84 226.567C212.144 227.627 212.274 228.882 212.317 230.787C212.339 232.929 212.425 233.665 212.751 234.314C213.249 235.331 213.77 235.288 214.03 234.249C214.117 233.838 214.29 230.614 214.398 227.108C214.594 220.204 214.68 219.685 216.025 215.963C217 213.301 217.174 211.613 216.697 209.947C216.436 209.06 216.241 208.713 215.96 208.713C215.678 208.713 215.504 208.41 215.309 207.588C215.179 206.982 214.377 205.251 213.553 203.758C211.818 200.555 211.645 200.079 210.583 195.08C210.149 193.002 209.065 188.414 208.176 184.909C206.376 177.789 206.073 175.884 205.726 169.652C205.422 164.22 204.989 160.909 204.273 158.637C203.276 155.456 201.606 152.664 200.175 151.777C199.655 151.474 199.482 151.236 199.633 151.063C199.763 150.911 199.417 150.305 198.549 149.223C197.834 148.358 196.099 145.955 194.668 143.921C191.633 139.55 190.029 137.732 188.728 137.083C188.207 136.845 186.755 136.455 185.519 136.239C183.372 135.871 183.221 135.806 181.66 134.616C179.773 133.188 176.434 131.5 173.963 130.699C173.009 130.396 171.057 129.941 169.626 129.703C163.556 128.665 159.826 127.128 150.113 121.718C147.62 120.311 145.213 118.991 144.779 118.775C143.999 118.364 140.313 113.689 137.213 109.188C134.351 105.033 132.291 103.605 127.087 102.22C118.22 99.8609 111.238 95.9873 102.197 88.3914C94.5869 82.0074 79.3232 66.9023 70.0002 56.5797C66.748 52.9657 61.5878 46.8198 58.4007 42.7081C56.9697 40.8686 55.1918 38.6613 54.4546 37.774C53.6958 36.8867 53.0887 36.1077 53.0887 36.0427C53.0887 35.9778 53.6958 35.9562 54.433 35.9778C56.2108 36.086 57.2732 35.7398 58.4007 34.701C59.5281 33.6623 60.352 31.8877 60.6989 29.7453C60.9374 28.1439 60.9374 28.1439 60.3737 27.6462C59.5715 26.9753 57.837 26.4992 56.1024 26.4992C54.8449 26.4992 54.4547 26.6074 53.1538 27.2999C52.3516 27.7327 51.2892 28.1872 50.8122 28.3387L49.9666 28.5984L49.4462 27.0619C48.644 24.5949 48.8825 23.5345 51.0507 20.2234C53.0454 17.1505 53.0454 16.2416 51.0073 12.5843C50.6387 11.9134 49.9449 11.8269 48.7958 12.3246Z" fill="black"/>
<path d="M21 35.1338C21 35.2421 21.1518 35.4585 21.3686 35.6099C21.6938 35.8913 21.6938 35.8696 21.4553 35.4152C21.1951 34.9174 21 34.8092 21 35.1338Z" fill="black"/>
<path d="M97 50C97 75.9574 75.9574 97 50 97C24.0426 97 3 75.9574 3 50C3 24.0426 24.0426 3 50 3C75.9574 3 97 24.0426 97 50Z" stroke="black" stroke-width="6"/>
</g>
</svg>
