<svg width="417" height="100" viewBox="0 0 417 100" fill="none" xmlns="http://www.w3.org/2000/svg">
<path fill-rule="evenodd" clip-rule="evenodd" d="M338.461 59.0547C339.164 57.3359 339.516 55.4531 339.516 53.4062V46.9844C339.516 44.9531 339.164 43.0781 338.461 41.3594C337.758 39.625 336.781 38.1406 335.531 36.9062C334.281 35.6562 332.797 34.6797 331.078 33.9766C329.375 33.2734 327.516 32.9219 325.5 32.9219H317.25C315.234 32.9219 313.367 33.2734 311.648 33.9766C309.93 34.6797 308.445 35.6562 307.195 36.9062C305.945 38.1406 304.961 39.625 304.242 41.3594C303.539 43.0781 303.188 44.9531 303.188 46.9844V53.4062C303.188 55.4531 303.539 57.3359 304.242 59.0547C304.961 60.7734 305.945 62.2578 307.195 63.5078C308.445 64.7578 309.93 65.7344 311.648 66.4375C313.367 67.125 315.234 67.4688 317.25 67.4688H325.5C327.516 67.4688 329.375 67.125 331.078 66.4375C332.797 65.7344 334.281 64.7578 335.531 63.5078C336.781 62.2578 337.758 60.7734 338.461 59.0547ZM332.836 43.7266C333.227 44.6953 333.422 45.7812 333.422 46.9844V53.4062C333.422 54.6094 333.227 55.7031 332.836 56.6875C332.461 57.6562 331.922 58.4922 331.219 59.1953C330.516 59.8828 329.672 60.4219 328.688 60.8125C327.719 61.1875 326.641 61.375 325.453 61.375H317.25C316.062 61.375 314.977 61.1875 313.992 60.8125C313.023 60.4219 312.188 59.8828 311.484 59.1953C310.781 58.4922 310.234 57.6562 309.844 56.6875C309.469 55.7031 309.281 54.6094 309.281 53.4062V46.9844C309.281 45.7812 309.469 44.6953 309.844 43.7266C310.234 42.7422 310.781 41.9062 311.484 41.2188C312.188 40.5156 313.023 39.9766 313.992 39.6016C314.977 39.2109 316.062 39.0156 317.25 39.0156H325.5C326.672 39.0156 327.742 39.2109 328.711 39.6016C329.695 39.9766 330.531 40.5156 331.219 41.2188C331.922 41.9062 332.461 42.7422 332.836 43.7266Z" fill="black"/>
<path fill-rule="evenodd" clip-rule="evenodd" d="M144.68 62.0312C144.945 61.1719 145.078 60.3672 145.078 59.6172V58.4453C145.078 57.2578 144.945 56.1719 144.68 55.1875C144.414 54.2031 144.055 53.3203 143.602 52.5391C143.148 51.7578 142.617 51.0703 142.008 50.4766C141.414 49.8828 140.773 49.375 140.086 48.9531C140.883 47.8438 141.461 46.6719 141.82 45.4375C142.18 44.1875 142.359 43.0234 142.359 41.9453V40.7969C142.359 39.4375 142.109 38.2891 141.609 37.3516C141.125 36.4141 140.508 35.6562 139.758 35.0781C139.023 34.4844 138.227 34.0547 137.367 33.7891C136.508 33.5234 135.703 33.3906 134.953 33.3906H114.562C114.125 33.3906 113.719 33.4688 113.344 33.625C112.969 33.7812 112.641 34 112.359 34.2812C112.094 34.5625 111.883 34.8906 111.727 35.2656C111.57 35.6406 111.492 36.0391 111.492 36.4609V63.9297C111.492 64.3672 111.57 64.7734 111.727 65.1484C111.883 65.5234 112.094 65.8516 112.359 66.1328C112.641 66.3984 112.969 66.6094 113.344 66.7656C113.719 66.9219 114.125 67 114.562 67H137.695C139.055 67 140.203 66.7578 141.141 66.2734C142.078 65.7734 142.836 65.1562 143.414 64.4219C144.008 63.6875 144.43 62.8906 144.68 62.0312ZM138.609 56.3125C138.859 56.9375 138.984 57.6484 138.984 58.4453V59.5703C138.984 59.8984 138.938 60.1562 138.844 60.3438C138.75 60.5312 138.641 60.6641 138.516 60.7422C138.391 60.8203 138.25 60.8672 138.094 60.8828C137.938 60.8984 137.805 60.9062 137.695 60.9062H117.586V39.4844H134.953C135.797 39.4844 136.219 39.9219 136.219 40.7969V41.9453C136.219 42.7422 136.094 43.4609 135.844 44.1016C135.609 44.7266 135.266 45.2656 134.812 45.7188C134.359 46.1719 133.812 46.5234 133.172 46.7734C132.531 47.0078 131.812 47.125 131.016 47.125H128V53.2656H133.758C134.555 53.2656 135.273 53.3906 135.914 53.6406C136.555 53.875 137.102 54.2188 137.555 54.6719C138.008 55.125 138.359 55.6719 138.609 56.3125Z" fill="black"/>
<path d="M177.281 67H183.375V36.4609C183.375 36.0391 183.297 35.6406 183.141 35.2656C182.984 34.8906 182.766 34.5625 182.484 34.2812C182.203 34 181.875 33.7812 181.5 33.625C181.125 33.4688 180.727 33.3906 180.305 33.3906H166.57C164.148 33.3906 161.914 33.8047 159.867 34.6328C157.82 35.4609 156.047 36.6172 154.547 38.1016C153.047 39.5859 151.875 41.3594 151.031 43.4219C150.188 45.4844 149.766 47.7422 149.766 50.1953V67H155.859V58.75H155.87V52.6562H155.859V50.1953C155.859 48.4922 156.094 47.0469 156.562 45.8594C157.047 44.6562 157.656 43.6562 158.391 42.8594C159.125 42.0625 159.93 41.4375 160.805 40.9844C161.68 40.5312 162.508 40.1953 163.289 39.9766C164.086 39.7578 164.781 39.625 165.375 39.5781C165.984 39.5156 166.383 39.4844 166.57 39.4844H177.281V52.6562H177.27V58.75H177.281V67Z" fill="black"/>
<path d="M220.57 67H198.586C198.023 67 197.414 66.9375 196.758 66.8125C196.117 66.6719 195.477 66.4609 194.836 66.1797C194.211 65.8984 193.609 65.5391 193.031 65.1016C192.453 64.6484 191.938 64.1094 191.484 63.4844C191.047 62.8438 190.695 62.1094 190.43 61.2812C190.164 60.4375 190.031 59.4922 190.031 58.4453V41.9453C190.031 41.3828 190.094 40.7812 190.219 40.1406C190.359 39.4844 190.57 38.8438 190.852 38.2188C191.133 37.5781 191.5 36.9688 191.953 36.3906C192.406 35.8125 192.945 35.3047 193.57 34.8672C194.211 34.4141 194.945 34.0547 195.773 33.7891C196.602 33.5234 197.539 33.3906 198.586 33.3906H220.57V39.4844H198.586C197.789 39.4844 197.18 39.6953 196.758 40.1172C196.336 40.5391 196.125 41.1641 196.125 41.9922V58.4453C196.125 59.2266 196.336 59.8359 196.758 60.2734C197.195 60.6953 197.805 60.9062 198.586 60.9062H220.57V67Z" fill="black"/>
<path d="M252.914 67H261.562L244.289 50.1953L261.562 33.3906H252.914L239.203 47.125H234.914V53.2656H239.203L252.914 67Z" fill="black"/>
<path d="M226.383 67H232.477V33.3906H226.383V67Z" fill="black"/>
<path fill-rule="evenodd" clip-rule="evenodd" d="M298.922 59.6172C298.922 60.3672 298.789 61.1719 298.523 62.0312C298.273 62.8906 297.852 63.6875 297.258 64.4219C296.68 65.1562 295.922 65.7734 294.984 66.2734C294.047 66.7578 292.898 67 291.539 67H268.406C267.969 67 267.562 66.9219 267.188 66.7656C266.812 66.6094 266.484 66.3984 266.203 66.1328C265.938 65.8516 265.727 65.5234 265.57 65.1484C265.414 64.7734 265.336 64.3672 265.336 63.9297V36.4609C265.336 36.0391 265.414 35.6406 265.57 35.2656C265.727 34.8906 265.938 34.5625 266.203 34.2812C266.484 34 266.812 33.7812 267.188 33.625C267.562 33.4688 267.969 33.3906 268.406 33.3906H288.797C289.547 33.3906 290.352 33.5234 291.211 33.7891C292.07 34.0547 292.867 34.4844 293.602 35.0781C294.352 35.6562 294.969 36.4141 295.453 37.3516C295.953 38.2891 296.203 39.4375 296.203 40.7969V41.9453C296.203 43.0234 296.023 44.1875 295.664 45.4375C295.305 46.6719 294.727 47.8438 293.93 48.9531C294.617 49.375 295.258 49.8828 295.852 50.4766C296.461 51.0703 296.992 51.7578 297.445 52.5391C297.898 53.3203 298.258 54.2031 298.523 55.1875C298.789 56.1719 298.922 57.2578 298.922 58.4453V59.6172ZM292.828 58.4453C292.828 57.6484 292.703 56.9375 292.453 56.3125C292.203 55.6719 291.852 55.125 291.398 54.6719C290.945 54.2188 290.398 53.875 289.758 53.6406C289.117 53.3906 288.398 53.2656 287.602 53.2656H282V47.125H284.859C285.656 47.125 286.375 47.0078 287.016 46.7734C287.656 46.5234 288.203 46.1719 288.656 45.7188C289.109 45.2656 289.453 44.7266 289.688 44.1016C289.938 43.4609 290.062 42.7422 290.062 41.9453V40.7969C290.062 39.9219 289.641 39.4844 288.797 39.4844H271.43V60.9062H291.539C291.648 60.9062 291.781 60.8984 291.938 60.8828C292.094 60.8672 292.234 60.8203 292.359 60.7422C292.484 60.6641 292.594 60.5312 292.688 60.3438C292.781 60.1562 292.828 59.8984 292.828 59.5703V58.4453Z" fill="black"/>
<path d="M379.125 64.3984C379.125 64.8359 379.039 65.2422 378.867 65.6172C378.711 65.9922 378.492 66.3203 378.211 66.6016C377.945 66.8672 377.625 67.0781 377.25 67.2344C376.875 67.3906 376.477 67.4688 376.055 67.4688C375.68 67.4688 375.297 67.3984 374.906 67.2578C374.531 67.1172 374.195 66.8906 373.898 66.5781L351.633 43.3281V67H345.539V35.9922C345.539 35.3672 345.711 34.8047 346.055 34.3047C346.414 33.7891 346.867 33.4062 347.414 33.1562C347.992 32.9219 348.586 32.8672 349.195 32.9922C349.805 33.1016 350.328 33.3828 350.766 33.8359L373.031 57.0625V33.3906H379.125V64.3984Z" fill="black"/>
<path d="M404 53.2656H413.859V47.125H404V53.2656Z" fill="black"/>
<path d="M394.617 67H416.602V60.9062H394.664C393.852 60.9062 393.234 60.6953 392.812 60.2734C392.391 59.8516 392.18 59.2422 392.18 58.4453V39.4844H416.602V33.3906H389.156C388.719 33.3906 388.312 33.4688 387.938 33.625C387.562 33.7812 387.234 34 386.953 34.2812C386.688 34.5625 386.477 34.8906 386.32 35.2656C386.164 35.6406 386.086 36.0391 386.086 36.4609V58.4453C386.086 60.0234 386.367 61.3594 386.93 62.4531C387.508 63.5312 388.219 64.4141 389.062 65.1016C389.922 65.7734 390.852 66.2578 391.852 66.5547C392.852 66.8516 393.773 67 394.617 67Z" fill="black"/>
<mask id="mask0_9_64" style="mask-type:alpha" maskUnits="userSpaceOnUse" x="0" y="0" width="100" height="100">
<ellipse cx="50" cy="50" rx="50" ry="50" fill="#D9D9D9"/>
</mask>
<g mask="url(#mask0_9_64)">
<path d="M48.7958 12.3246C47.9069 12.7142 47.3648 13.9044 46.3892 17.5184C45.2184 21.9763 44.0909 23.1017 41.0122 22.9934L39.4511 22.9285L38.8657 21.4137C38.5405 20.5697 37.9985 19.3362 37.6516 18.6653C37.1529 17.6482 37.0878 17.3452 37.283 16.999C37.4998 16.696 37.4564 16.4363 37.1312 15.7655C36.2423 13.9477 34.0091 13.3417 32.8166 14.5969C32.2746 15.1812 32.1662 15.4625 32.1011 16.7393C32.0144 18.081 32.1011 18.4056 32.8816 20.2451C34.0524 22.9718 34.2909 23.9889 34.1175 25.2874C33.944 26.7373 33.337 27.7977 32.1662 28.8364C30.475 30.308 26.1821 32.2989 22.4529 33.3377C21.152 33.6839 20.6967 34.1817 21.2604 34.5928C21.7374 34.9391 22.3445 36.1942 22.0626 36.2808C21.694 36.4106 23.3418 38.1419 24.4259 38.7911C25.3582 39.3321 25.6401 39.3754 27.6131 39.3754C29.4993 39.3754 29.8896 39.3105 30.5834 38.8777C31.0604 38.5747 31.906 38.315 32.5998 38.2501C34.1392 38.0986 34.2693 38.4016 33.402 40.0679C33.0551 40.7604 32.2095 42.9894 31.5157 45.0236L30.2799 48.7242L30.7569 50.4338C30.9954 51.3859 31.5157 52.7709 31.906 53.55C32.448 54.6753 32.7082 54.9783 33.1418 55.0216C33.4454 55.0432 34.2259 55.1731 34.8763 55.3029C35.8737 55.4977 36.2206 55.476 37.0011 55.1731C37.9334 54.7835 40.0365 52.7277 40.6219 51.624C40.8387 51.1912 41.3591 50.8233 42.3564 50.4121C43.137 50.0659 43.8091 49.8495 43.8524 49.8927C44.2861 50.4121 47.3648 56.9259 48.5356 59.8258C53.0454 70.8192 63.3874 88.3481 73.2524 101.787C80.5374 111.677 90.1423 122.865 97.2971 129.79C98.8799 131.305 100.116 132.625 100.051 132.733C99.9856 132.841 100.181 133.49 100.463 134.161C101.72 136.953 101.98 140.048 101.221 143.056C100.94 144.224 100.072 146.237 98.5113 149.31C97.2538 151.798 96.1263 154.33 95.9962 154.893C95.8445 155.521 95.7794 156.884 95.8445 158.269C95.9529 160.303 96.083 160.974 96.9936 163.614C97.5356 165.259 98.3378 167.271 98.7281 168.051C99.3785 169.327 99.4219 169.479 99.0967 169.695C98.7715 169.912 98.8365 170.128 99.6821 171.751C100.202 172.725 101.221 174.694 101.959 176.101L103.281 178.654L103.26 180.537C103.194 184.259 103.151 184.497 101.937 186.229C100.224 188.739 98.598 191.682 95.3458 198.153C93.6763 201.464 91.2046 206.051 89.817 208.324C88.4511 210.596 86.8684 213.344 86.3263 214.405C85.2206 216.612 83.8763 220.01 83.8763 220.616C83.8763 220.81 83.6812 221.135 83.4644 221.286C83.0741 221.568 83.0524 221.698 83.3343 224.533C84.0064 231.523 84.2016 236.11 84.1799 245.394C84.1582 250.631 84.0498 256.106 83.9631 257.578C83.8547 259.049 83.833 260.348 83.898 260.478C83.9847 260.586 83.9631 261.04 83.8546 261.495C83.7679 261.928 83.5294 263.983 83.356 266.061C83.1608 268.138 82.944 270.129 82.879 270.497C82.6622 271.709 81.86 273.938 81.0361 275.756C80.5808 276.73 80.2555 277.704 80.3206 277.92C80.4073 278.18 80.3856 278.201 80.2555 278.007C80.1038 277.812 79.9954 277.877 79.8002 278.288C79.475 279.002 79.475 279.413 79.7785 279.521C79.9303 279.565 79.7135 280.236 79.2148 281.296C78.7162 282.378 78.456 283.2 78.4993 283.568C78.5427 283.893 78.456 284.282 78.3042 284.412C77.5454 285.126 78.998 285.862 81.0577 285.84C82.1418 285.819 82.7272 285.689 83.6378 285.235C85.3073 284.369 86.9985 282.594 87.844 280.841C88.4945 279.435 88.5378 279.218 88.6679 275.907C88.733 274.003 88.8631 272.25 88.9715 272.012C89.0799 271.774 89.7303 270.649 90.4024 269.523C92.0936 266.732 92.1803 266.256 91.8768 262.772C91.5732 259.266 91.725 253.812 92.3538 246.801C92.5923 244.009 92.8741 238.837 92.9608 235.331C93.1343 227.973 93.0042 228.45 95.5626 224.511C96.3865 223.256 97.167 221.871 97.3405 221.438C97.5573 220.767 97.7091 220.659 98.0777 220.745C98.4896 220.854 98.9449 220.183 102.067 215.011C106.078 208.302 108.702 204.299 110.978 201.377C112.626 199.278 116.398 195.361 117.634 194.474L118.35 193.976L118.588 194.56C118.697 194.907 119.434 197.612 120.193 200.598C122.036 207.761 123.705 216.136 124.225 220.94C125.158 229.64 125.331 230.981 125.743 232.951C126.589 237.127 128.367 241.391 129.256 241.391C129.624 241.391 129.667 241.499 129.537 242.235C129.472 242.689 129.559 244.94 129.754 247.255C129.928 249.571 130.166 254.072 130.275 257.296C130.383 260.499 130.687 264.892 130.925 267.013C131.684 273.657 131.532 275.496 129.819 280.863C128.648 284.585 127.89 287.94 128.15 288.286C128.497 288.719 130.73 289.065 132.443 288.935C135.066 288.719 137.429 287.723 138.297 286.468C138.795 285.732 138.839 285.494 138.839 282.919C138.839 281.123 138.752 280.062 138.6 279.911C138.427 279.738 138.405 279.435 138.535 278.98C138.622 278.591 138.86 276.795 139.056 274.955C139.316 272.293 139.337 271.558 139.121 271.298C138.969 271.125 138.817 270.324 138.817 269.545C138.795 268.766 138.535 267.1 138.232 265.845C137.039 260.846 136.497 253.812 136.606 244.593C136.649 239.616 136.736 238.145 136.952 238.145C137.581 238.145 137.169 232.778 135.803 223.191C134.394 213.215 134.242 205.857 135.261 193.24C135.76 186.921 135.933 185.579 136.324 185.45C136.714 185.341 139.771 186.142 141.462 186.813C144.649 188.09 148.812 188.782 150.46 188.328C150.937 188.198 151.002 188.241 151.002 188.631C150.98 189.28 151.717 189.453 155.555 189.605C159.349 189.756 161.214 189.453 163.859 188.241C165.29 187.57 165.529 187.527 165.919 187.808C167.155 188.609 168.195 191.682 169.54 198.585C170.494 203.498 170.624 203.909 172.987 209.471C175.112 214.47 175.632 215.898 176.521 219.425C178.993 229.034 180.142 238.101 180.25 248.943C180.315 254.029 180.402 255.782 180.597 255.89C180.792 256.02 180.792 256.344 180.51 257.34C180.315 258.032 180.055 259.764 179.925 261.192C179.34 268.16 178.537 271.471 176.76 274.219C176.348 274.869 176.044 275.518 176.087 275.648C176.217 275.972 175.35 277.184 174.288 278.18C172.857 279.543 171.513 283.72 172.25 284.455C172.445 284.65 172.727 284.65 173.334 284.477C173.811 284.347 175.545 284.239 177.215 284.239C180.684 284.239 181.508 283.979 182.657 282.659C183.763 281.426 184.131 279.998 184.131 276.838C184.153 274.155 184.175 274.068 184.63 274.068C185.649 274.068 187.123 271.514 187.513 269.047C187.622 268.268 187.709 266.169 187.709 264.395C187.687 262.642 187.752 260.651 187.839 259.98C187.969 258.963 187.925 258.725 187.644 258.552C187.318 258.379 187.318 258.249 187.6 257.296C188.186 255.327 188.598 252.6 189.14 247.017C190.007 238.166 190.766 234.509 192.5 230.852C193.302 229.142 193.302 229.077 192.912 228.796C192.652 228.623 190.419 223.559 187.08 215.552C184.088 208.432 181.551 202.416 181.421 202.178C181.291 201.94 181.226 201.702 181.291 201.658C181.464 201.485 185.345 208.432 187.882 213.474C189.248 216.158 190.506 218.452 190.679 218.603C190.874 218.755 191.221 219.815 191.525 221.2C192.132 224.035 192.5 225.29 194.668 231.977C196.381 237.279 198.528 245.459 200.067 252.644C200.631 255.197 201.043 256.734 201.26 256.885C201.541 257.08 201.606 257.686 201.606 260.348C201.606 265.304 201.303 267.922 200.327 271.796C199.85 273.7 199.395 275.713 199.33 276.254C199.243 277.011 199.091 277.292 198.788 277.379C198.333 277.487 198.202 278.071 198.571 278.288C198.701 278.353 198.766 278.634 198.766 278.894C198.744 279.348 198.723 279.348 198.614 278.937C198.549 278.677 198.311 279.435 198.029 280.777C197.769 282.032 197.422 283.503 197.27 284.066C197.097 284.629 197.032 285.148 197.118 285.235C197.183 285.321 197.617 285.213 198.051 284.996C198.506 284.78 199.785 284.477 200.934 284.304C202.062 284.131 203.319 283.85 203.688 283.676C204.663 283.2 206.008 281.815 206.702 280.495C207.287 279.456 207.309 279.283 207.265 276.795C207.244 275.345 207.113 273.743 207.005 273.224C206.81 272.38 206.853 272.099 207.33 271.06C208.089 269.35 208.891 266.321 209.26 263.832C209.498 262.274 209.694 261.625 209.975 261.408C210.344 261.149 210.322 260.91 209.238 256.409C206.615 245.546 206.225 239.465 207.721 232.193C208.089 230.376 208.198 229.055 208.219 226.675V223.515L207.352 221.806C206.636 220.378 206.398 220.075 205.986 220.096C205.574 220.118 205.444 219.923 205.14 218.906C204.967 218.235 204.338 216.612 203.775 215.314C199.59 205.684 198.961 193.457 201.975 180.645C202.3 179.304 202.625 178.2 202.734 178.2C202.821 178.2 202.907 178.351 202.907 178.525C202.907 178.719 203.731 181.1 204.729 183.848C207.135 190.362 207.525 191.812 208.458 197.287C208.891 199.819 209.52 203 209.867 204.342C210.214 205.684 210.496 207.069 210.496 207.415C210.496 207.739 210.149 209.233 209.715 210.704C209.13 212.717 208.935 213.734 208.956 214.924C208.956 216.396 209.433 218.755 209.867 219.577C209.975 219.772 210.366 221.092 210.734 222.498C211.125 223.905 211.623 225.723 211.84 226.567C212.144 227.627 212.274 228.882 212.317 230.787C212.339 232.929 212.425 233.665 212.751 234.314C213.249 235.331 213.77 235.288 214.03 234.249C214.117 233.838 214.29 230.614 214.398 227.108C214.594 220.204 214.68 219.685 216.025 215.963C217 213.301 217.174 211.613 216.697 209.947C216.436 209.06 216.241 208.713 215.96 208.713C215.678 208.713 215.504 208.41 215.309 207.588C215.179 206.982 214.377 205.251 213.553 203.758C211.818 200.555 211.645 200.079 210.583 195.08C210.149 193.002 209.065 188.414 208.176 184.909C206.376 177.789 206.073 175.884 205.726 169.652C205.422 164.22 204.989 160.909 204.273 158.637C203.276 155.456 201.606 152.664 200.175 151.777C199.655 151.474 199.482 151.236 199.633 151.063C199.763 150.911 199.417 150.305 198.549 149.223C197.834 148.358 196.099 145.955 194.668 143.921C191.633 139.55 190.029 137.732 188.728 137.083C188.207 136.845 186.755 136.455 185.519 136.239C183.372 135.871 183.221 135.806 181.66 134.616C179.773 133.188 176.434 131.5 173.963 130.699C173.009 130.396 171.057 129.941 169.626 129.703C163.556 128.665 159.826 127.128 150.113 121.718C147.62 120.311 145.213 118.991 144.779 118.775C143.999 118.364 140.313 113.689 137.213 109.188C134.351 105.033 132.291 103.605 127.087 102.22C118.22 99.8609 111.238 95.9873 102.197 88.3914C94.5869 82.0074 79.3232 66.9023 70.0002 56.5797C66.748 52.9657 61.5878 46.8198 58.4007 42.7081C56.9697 40.8686 55.1918 38.6613 54.4546 37.774C53.6958 36.8867 53.0887 36.1077 53.0887 36.0427C53.0887 35.9778 53.6958 35.9562 54.433 35.9778C56.2108 36.086 57.2732 35.7398 58.4007 34.701C59.5281 33.6623 60.352 31.8877 60.6989 29.7453C60.9374 28.1439 60.9374 28.1439 60.3737 27.6462C59.5715 26.9753 57.837 26.4992 56.1024 26.4992C54.8449 26.4992 54.4546 26.6074 53.1538 27.2999C52.3516 27.7327 51.2892 28.1872 50.8122 28.3387L49.9666 28.5984L49.4462 27.0619C48.644 24.5949 48.8825 23.5345 51.0507 20.2234C53.0454 17.1505 53.0454 16.2416 51.0073 12.5843C50.6387 11.9134 49.9449 11.8269 48.7958 12.3246Z" fill="black"/>
<path d="M21 35.1338C21 35.2421 21.1518 35.4585 21.3686 35.6099C21.6938 35.8913 21.6938 35.8696 21.4553 35.4152C21.1951 34.9174 21 34.8092 21 35.1338Z" fill="black"/>
<path d="M97 50C97 75.9574 75.9574 97 50 97C24.0426 97 3 75.9574 3 50C3 24.0426 24.0426 3 50 3C75.9574 3 97 24.0426 97 50Z" stroke="black" stroke-width="6"/>
</g>
</svg>
