<svg width="306" height="151" viewBox="0 0 306 151" fill="none" xmlns="http://www.w3.org/2000/svg">
<path fill-rule="evenodd" clip-rule="evenodd" d="M226.969 142.133C227.672 140.414 228.023 138.531 228.023 136.484V130.062C228.023 128.031 227.672 126.156 226.969 124.438C226.266 122.703 225.289 121.219 224.039 119.984C222.789 118.734 221.305 117.758 219.586 117.055C217.883 116.352 216.023 116 214.008 116H205.758C203.742 116 201.875 116.352 200.156 117.055C198.438 117.758 196.953 118.734 195.703 119.984C194.453 121.219 193.469 122.703 192.75 124.438C192.047 126.156 191.695 128.031 191.695 130.062V136.484C191.695 138.531 192.047 140.414 192.75 142.133C193.469 143.852 194.453 145.336 195.703 146.586C196.953 147.836 198.438 148.812 200.156 149.516C201.875 150.203 203.742 150.547 205.758 150.547H214.008C216.023 150.547 217.883 150.203 219.586 149.516C221.305 148.812 222.789 147.836 224.039 146.586C225.289 145.336 226.266 143.852 226.969 142.133ZM221.344 126.805C221.734 127.773 221.93 128.859 221.93 130.062V136.484C221.93 137.688 221.734 138.781 221.344 139.766C220.969 140.734 220.43 141.57 219.727 142.273C219.023 142.961 218.18 143.5 217.195 143.891C216.227 144.266 215.148 144.453 213.961 144.453H205.758C204.57 144.453 203.484 144.266 202.5 143.891C201.531 143.5 200.695 142.961 199.992 142.273C199.289 141.57 198.742 140.734 198.352 139.766C197.977 138.781 197.789 137.688 197.789 136.484V130.062C197.789 128.859 197.977 127.773 198.352 126.805C198.742 125.82 199.289 124.984 199.992 124.297C200.695 123.594 201.531 123.055 202.5 122.68C203.484 122.289 204.57 122.094 205.758 122.094H214.008C215.18 122.094 216.25 122.289 217.219 122.68C218.203 123.055 219.039 123.594 219.727 124.297C220.43 124.984 220.969 125.82 221.344 126.805Z" fill="white"/>
<path fill-rule="evenodd" clip-rule="evenodd" d="M33.1875 145.109C33.4531 144.25 33.5859 143.445 33.5859 142.695V141.523C33.5859 140.336 33.4531 139.25 33.1875 138.266C32.9219 137.281 32.5625 136.398 32.1094 135.617C31.6562 134.836 31.125 134.148 30.5156 133.555C29.9219 132.961 29.2812 132.453 28.5938 132.031C29.3906 130.922 29.9688 129.75 30.3281 128.516C30.6875 127.266 30.8672 126.102 30.8672 125.023V123.875C30.8672 122.516 30.6172 121.367 30.1172 120.43C29.6328 119.492 29.0156 118.734 28.2656 118.156C27.5312 117.562 26.7344 117.133 25.875 116.867C25.0156 116.602 24.2109 116.469 23.4609 116.469H3.07031C2.63281 116.469 2.22656 116.547 1.85156 116.703C1.47656 116.859 1.14844 117.078 0.867188 117.359C0.601562 117.641 0.390625 117.969 0.234375 118.344C0.078125 118.719 0 119.117 0 119.539V147.008C0 147.445 0.078125 147.852 0.234375 148.227C0.390625 148.602 0.601562 148.93 0.867188 149.211C1.14844 149.477 1.47656 149.688 1.85156 149.844C2.22656 150 2.63281 150.078 3.07031 150.078H26.2031C27.5625 150.078 28.7109 149.836 29.6484 149.352C30.5859 148.852 31.3438 148.234 31.9219 147.5C32.5156 146.766 32.9375 145.969 33.1875 145.109ZM27.1172 139.391C27.3672 140.016 27.4922 140.727 27.4922 141.523V142.648C27.4922 142.977 27.4453 143.234 27.3516 143.422C27.2578 143.609 27.1484 143.742 27.0234 143.82C26.8984 143.898 26.7578 143.945 26.6016 143.961C26.4453 143.977 26.3125 143.984 26.2031 143.984H6.09375V122.562H23.4609C24.3047 122.562 24.7266 123 24.7266 123.875V125.023C24.7266 125.82 24.6016 126.539 24.3516 127.18C24.1172 127.805 23.7734 128.344 23.3203 128.797C22.8672 129.25 22.3203 129.602 21.6797 129.852C21.0391 130.086 20.3203 130.203 19.5234 130.203H16.5078V136.344H22.2656C23.0625 136.344 23.7812 136.469 24.4219 136.719C25.0625 136.953 25.6094 137.297 26.0625 137.75C26.5156 138.203 26.8672 138.75 27.1172 139.391Z" fill="white"/>
<path d="M65.7891 150.078H71.8828V119.539C71.8828 119.117 71.8047 118.719 71.6484 118.344C71.4922 117.969 71.2734 117.641 70.9922 117.359C70.7109 117.078 70.3828 116.859 70.0078 116.703C69.6328 116.547 69.2344 116.469 68.8125 116.469H55.0781C52.6562 116.469 50.4219 116.883 48.375 117.711C46.3281 118.539 44.5547 119.695 43.0547 121.18C41.5547 122.664 40.3828 124.438 39.5391 126.5C38.6953 128.562 38.2734 130.82 38.2734 133.273V150.078H44.3672V141.828H44.3778V135.734H44.3672V133.273C44.3672 131.57 44.6016 130.125 45.0703 128.938C45.5547 127.734 46.1641 126.734 46.8984 125.938C47.6328 125.141 48.4375 124.516 49.3125 124.062C50.1875 123.609 51.0156 123.273 51.7969 123.055C52.5938 122.836 53.2891 122.703 53.8828 122.656C54.4922 122.594 54.8906 122.562 55.0781 122.562H65.7891V135.734H65.7778V141.828H65.7891V150.078Z" fill="white"/>
<path d="M109.078 150.078H87.0938C86.5312 150.078 85.9219 150.016 85.2656 149.891C84.625 149.75 83.9844 149.539 83.3438 149.258C82.7188 148.977 82.1172 148.617 81.5391 148.18C80.9609 147.727 80.4453 147.188 79.9922 146.562C79.5547 145.922 79.2031 145.188 78.9375 144.359C78.6719 143.516 78.5391 142.57 78.5391 141.523V125.023C78.5391 124.461 78.6016 123.859 78.7266 123.219C78.8672 122.562 79.0781 121.922 79.3594 121.297C79.6406 120.656 80.0078 120.047 80.4609 119.469C80.9141 118.891 81.4531 118.383 82.0781 117.945C82.7188 117.492 83.4531 117.133 84.2812 116.867C85.1094 116.602 86.0469 116.469 87.0938 116.469H109.078V122.562H87.0938C86.2969 122.562 85.6875 122.773 85.2656 123.195C84.8438 123.617 84.6328 124.242 84.6328 125.07V141.523C84.6328 142.305 84.8438 142.914 85.2656 143.352C85.7031 143.773 86.3125 143.984 87.0938 143.984H109.078V150.078Z" fill="white"/>
<path d="M141.422 150.078H150.07L132.797 133.273L150.07 116.469H141.422L127.711 130.203H123.422V136.344H127.711L141.422 150.078Z" fill="white"/>
<path d="M114.891 150.078H120.984V116.469H114.891V150.078Z" fill="white"/>
<path fill-rule="evenodd" clip-rule="evenodd" d="M187.43 142.695C187.43 143.445 187.297 144.25 187.031 145.109C186.781 145.969 186.359 146.766 185.766 147.5C185.188 148.234 184.43 148.852 183.492 149.352C182.555 149.836 181.406 150.078 180.047 150.078H156.914C156.477 150.078 156.07 150 155.695 149.844C155.32 149.688 154.992 149.477 154.711 149.211C154.445 148.93 154.234 148.602 154.078 148.227C153.922 147.852 153.844 147.445 153.844 147.008V119.539C153.844 119.117 153.922 118.719 154.078 118.344C154.234 117.969 154.445 117.641 154.711 117.359C154.992 117.078 155.32 116.859 155.695 116.703C156.07 116.547 156.477 116.469 156.914 116.469H177.305C178.055 116.469 178.859 116.602 179.719 116.867C180.578 117.133 181.375 117.562 182.109 118.156C182.859 118.734 183.477 119.492 183.961 120.43C184.461 121.367 184.711 122.516 184.711 123.875V125.023C184.711 126.102 184.531 127.266 184.172 128.516C183.812 129.75 183.234 130.922 182.438 132.031C183.125 132.453 183.766 132.961 184.359 133.555C184.969 134.148 185.5 134.836 185.953 135.617C186.406 136.398 186.766 137.281 187.031 138.266C187.297 139.25 187.43 140.336 187.43 141.523V142.695ZM181.336 141.523C181.336 140.727 181.211 140.016 180.961 139.391C180.711 138.75 180.359 138.203 179.906 137.75C179.453 137.297 178.906 136.953 178.266 136.719C177.625 136.469 176.906 136.344 176.109 136.344H170.508V130.203H173.367C174.164 130.203 174.883 130.086 175.523 129.852C176.164 129.602 176.711 129.25 177.164 128.797C177.617 128.344 177.961 127.805 178.195 127.18C178.445 126.539 178.57 125.82 178.57 125.023V123.875C178.57 123 178.148 122.562 177.305 122.562H159.938V143.984H180.047C180.156 143.984 180.289 143.977 180.445 143.961C180.602 143.945 180.742 143.898 180.867 143.82C180.992 143.742 181.102 143.609 181.195 143.422C181.289 143.234 181.336 142.977 181.336 142.648V141.523Z" fill="white"/>
<path d="M267.633 147.477C267.633 147.914 267.547 148.32 267.375 148.695C267.219 149.07 267 149.398 266.719 149.68C266.453 149.945 266.133 150.156 265.758 150.312C265.383 150.469 264.984 150.547 264.562 150.547C264.188 150.547 263.805 150.477 263.414 150.336C263.039 150.195 262.703 149.969 262.406 149.656L240.141 126.406V150.078H234.047V119.07C234.047 118.445 234.219 117.883 234.562 117.383C234.922 116.867 235.375 116.484 235.922 116.234C236.5 116 237.094 115.945 237.703 116.07C238.312 116.18 238.836 116.461 239.273 116.914L261.539 140.141V116.469H267.633V147.477Z" fill="white"/>
<path d="M292.508 136.344H302.367V130.203H292.508V136.344Z" fill="white"/>
<path d="M283.125 150.078H305.109V143.984H283.172C282.359 143.984 281.742 143.773 281.32 143.352C280.898 142.93 280.688 142.32 280.688 141.523V122.562H305.109V116.469H277.664C277.227 116.469 276.82 116.547 276.445 116.703C276.07 116.859 275.742 117.078 275.461 117.359C275.195 117.641 274.984 117.969 274.828 118.344C274.672 118.719 274.594 119.117 274.594 119.539V141.523C274.594 143.102 274.875 144.438 275.438 145.531C276.016 146.609 276.727 147.492 277.57 148.18C278.43 148.852 279.359 149.336 280.359 149.633C281.359 149.93 282.281 150.078 283.125 150.078Z" fill="white"/>
<mask id="mask0_9_57" style="mask-type:alpha" maskUnits="userSpaceOnUse" x="102" y="0" width="101" height="100">
<circle cx="152.508" cy="50" r="50" fill="#D9D9D9"/>
</mask>
<g mask="url(#mask0_9_57)">
<path d="M151.304 12.3246C150.415 12.7142 149.873 13.9044 148.897 17.5184C147.726 21.9763 146.599 23.1017 143.52 22.9934L141.959 22.9285L141.374 21.4137C141.048 20.5697 140.506 19.3362 140.159 18.6653C139.661 17.6482 139.596 17.3452 139.791 16.999C140.008 16.696 139.964 16.4363 139.639 15.7655C138.75 13.9477 136.517 13.3417 135.324 14.5969C134.782 15.1812 134.674 15.4625 134.609 16.7393C134.522 18.081 134.609 18.4056 135.389 20.2451C136.56 22.9718 136.799 23.9889 136.625 25.2874C136.452 26.7373 135.845 27.7977 134.674 28.8364C132.983 30.308 128.69 32.2989 124.961 33.3377C123.66 33.6839 123.205 34.1817 123.768 34.5928C124.245 34.9391 124.852 36.1942 124.57 36.2808C124.202 36.4106 125.85 38.1419 126.934 38.7911C127.866 39.3321 128.148 39.3754 130.121 39.3754C132.007 39.3754 132.397 39.3105 133.091 38.8777C133.568 38.5747 134.414 38.315 135.108 38.2501C136.647 38.0986 136.777 38.4016 135.91 40.0679C135.563 40.7604 134.717 42.9894 134.024 45.0236L132.788 48.7242L133.265 50.4338C133.503 51.3859 134.024 52.7709 134.414 53.55C134.956 54.6753 135.216 54.9783 135.65 55.0216C135.953 55.0432 136.734 55.1731 137.384 55.3029C138.381 55.4977 138.728 55.476 139.509 55.1731C140.441 54.7835 142.544 52.7277 143.13 51.624C143.347 51.1912 143.867 50.8233 144.864 50.4121C145.645 50.0659 146.317 49.8495 146.36 49.8927C146.794 50.4121 149.873 56.9259 151.043 59.8258C155.553 70.8192 165.895 88.3481 175.76 101.787C183.045 111.677 192.65 122.865 199.805 129.79C201.388 131.305 202.624 132.625 202.558 132.733C202.493 132.841 202.689 133.49 202.97 134.161C204.228 136.953 204.488 140.048 203.729 143.056C203.447 144.224 202.58 146.237 201.019 149.31C199.762 151.798 198.634 154.33 198.504 154.893C198.352 155.521 198.287 156.884 198.352 158.269C198.461 160.303 198.591 160.974 199.501 163.614C200.043 165.259 200.846 167.271 201.236 168.051C201.886 169.327 201.93 169.479 201.604 169.695C201.279 169.912 201.344 170.128 202.19 171.751C202.71 172.725 203.729 174.694 204.466 176.101L205.789 178.654L205.767 180.537C205.702 184.259 205.659 184.497 204.445 186.229C202.732 188.739 201.106 191.682 197.854 198.153C196.184 201.464 193.712 206.051 192.325 208.324C190.959 210.596 189.376 213.344 188.834 214.405C187.728 216.612 186.384 220.01 186.384 220.616C186.384 220.81 186.189 221.135 185.972 221.286C185.582 221.568 185.56 221.698 185.842 224.533C186.514 231.523 186.709 236.11 186.688 245.394C186.666 250.631 186.558 256.106 186.471 257.578C186.362 259.049 186.341 260.348 186.406 260.478C186.493 260.586 186.471 261.04 186.362 261.495C186.276 261.928 186.037 263.983 185.864 266.061C185.669 268.138 185.452 270.129 185.387 270.497C185.17 271.709 184.368 273.938 183.544 275.756C183.089 276.73 182.763 277.704 182.828 277.92C182.915 278.18 182.893 278.201 182.763 278.007C182.612 277.812 182.503 277.877 182.308 278.288C181.983 279.002 181.983 279.413 182.286 279.521C182.438 279.565 182.221 280.236 181.723 281.296C181.224 282.378 180.964 283.2 181.007 283.568C181.051 283.893 180.964 284.282 180.812 284.412C180.053 285.126 181.506 285.862 183.566 285.84C184.65 285.819 185.235 285.689 186.146 285.235C187.815 284.369 189.506 282.594 190.352 280.841C191.002 279.435 191.046 279.218 191.176 275.907C191.241 274.003 191.371 272.25 191.479 272.012C191.588 271.774 192.238 270.649 192.91 269.523C194.601 266.732 194.688 266.256 194.385 262.772C194.081 259.266 194.233 253.812 194.862 246.801C195.1 244.009 195.382 238.837 195.469 235.331C195.642 227.973 195.512 228.45 198.07 224.511C198.894 223.256 199.675 221.871 199.848 221.438C200.065 220.767 200.217 220.659 200.585 220.745C200.997 220.854 201.453 220.183 204.575 215.011C208.586 208.302 211.209 204.299 213.486 201.377C215.134 199.278 218.906 195.361 220.142 194.474L220.858 193.976L221.096 194.56C221.204 194.907 221.942 197.612 222.701 200.598C224.543 207.761 226.213 216.136 226.733 220.94C227.666 229.64 227.839 230.981 228.251 232.951C229.097 237.127 230.874 241.391 231.763 241.391C232.132 241.391 232.175 241.499 232.045 242.235C231.98 242.689 232.067 244.94 232.262 247.255C232.435 249.571 232.674 254.072 232.782 257.296C232.891 260.499 233.194 264.892 233.433 267.013C234.192 273.657 234.04 275.496 232.327 280.863C231.156 284.585 230.397 287.94 230.658 288.286C231.004 288.719 233.238 289.065 234.951 288.935C237.574 288.719 239.937 287.723 240.804 286.468C241.303 285.732 241.347 285.494 241.347 282.919C241.347 281.123 241.26 280.062 241.108 279.911C240.935 279.738 240.913 279.435 241.043 278.98C241.13 278.591 241.368 276.795 241.563 274.955C241.824 272.293 241.845 271.558 241.628 271.298C241.477 271.125 241.325 270.324 241.325 269.545C241.303 268.766 241.043 267.1 240.739 265.845C239.547 260.846 239.005 253.812 239.113 244.593C239.157 239.616 239.243 238.145 239.46 238.145C240.089 238.145 239.677 232.778 238.311 223.191C236.902 213.215 236.75 205.857 237.769 193.24C238.268 186.921 238.441 185.579 238.831 185.45C239.222 185.341 242.279 186.142 243.97 186.813C247.157 188.09 251.32 188.782 252.968 188.328C253.445 188.198 253.51 188.241 253.51 188.631C253.488 189.28 254.225 189.453 258.063 189.605C261.857 189.756 263.722 189.453 266.367 188.241C267.798 187.57 268.036 187.527 268.427 187.808C269.662 188.609 270.703 191.682 272.047 198.585C273.001 203.498 273.131 203.909 275.495 209.471C277.62 214.47 278.14 215.898 279.029 219.425C281.501 229.034 282.65 238.101 282.758 248.943C282.823 254.029 282.91 255.782 283.105 255.89C283.3 256.02 283.3 256.344 283.018 257.34C282.823 258.032 282.563 259.764 282.433 261.192C281.847 268.16 281.045 271.471 279.267 274.219C278.855 274.869 278.552 275.518 278.595 275.648C278.725 275.972 277.858 277.184 276.796 278.18C275.365 279.543 274.02 283.72 274.758 284.455C274.953 284.65 275.235 284.65 275.842 284.477C276.319 284.347 278.053 284.239 279.723 284.239C283.192 284.239 284.016 283.979 285.165 282.659C286.27 281.426 286.639 279.998 286.639 276.838C286.661 274.155 286.682 274.068 287.138 274.068C288.157 274.068 289.631 271.514 290.021 269.047C290.13 268.268 290.216 266.169 290.216 264.395C290.195 262.642 290.26 260.651 290.347 259.98C290.477 258.963 290.433 258.725 290.151 258.552C289.826 258.379 289.826 258.249 290.108 257.296C290.693 255.327 291.105 252.6 291.647 247.017C292.515 238.166 293.274 234.509 295.008 230.852C295.81 229.142 295.81 229.077 295.42 228.796C295.16 228.623 292.927 223.559 289.588 215.552C286.596 208.432 284.059 202.416 283.929 202.178C283.799 201.94 283.734 201.702 283.799 201.658C283.972 201.485 287.853 208.432 290.39 213.474C291.756 216.158 293.013 218.452 293.187 218.603C293.382 218.755 293.729 219.815 294.032 221.2C294.639 224.035 295.008 225.29 297.176 231.977C298.889 237.279 301.035 245.459 302.575 252.644C303.139 255.197 303.551 256.734 303.767 256.885C304.049 257.08 304.114 257.686 304.114 260.348C304.114 265.304 303.811 267.922 302.835 271.796C302.358 273.7 301.903 275.713 301.838 276.254C301.751 277.011 301.599 277.292 301.296 277.379C300.84 277.487 300.71 278.071 301.079 278.288C301.209 278.353 301.274 278.634 301.274 278.894C301.252 279.348 301.231 279.348 301.122 278.937C301.057 278.677 300.819 279.435 300.537 280.777C300.277 282.032 299.93 283.503 299.778 284.066C299.604 284.629 299.539 285.148 299.626 285.235C299.691 285.321 300.125 285.213 300.558 284.996C301.014 284.78 302.293 284.477 303.442 284.304C304.57 284.131 305.827 283.85 306.196 283.676C307.171 283.2 308.516 281.815 309.209 280.495C309.795 279.456 309.816 279.283 309.773 276.795C309.751 275.345 309.621 273.743 309.513 273.224C309.318 272.38 309.361 272.099 309.838 271.06C310.597 269.35 311.399 266.321 311.768 263.832C312.006 262.274 312.201 261.625 312.483 261.408C312.852 261.149 312.83 260.91 311.746 256.409C309.123 245.546 308.732 239.465 310.228 232.193C310.597 230.376 310.705 229.055 310.727 226.675V223.515L309.86 221.806C309.144 220.378 308.906 220.075 308.494 220.096C308.082 220.118 307.952 219.923 307.648 218.906C307.475 218.235 306.846 216.612 306.282 215.314C302.098 205.684 301.469 193.457 304.483 180.645C304.808 179.304 305.133 178.2 305.242 178.2C305.328 178.2 305.415 178.351 305.415 178.525C305.415 178.719 306.239 181.1 307.236 183.848C309.643 190.362 310.033 191.812 310.966 197.287C311.399 199.819 312.028 203 312.375 204.342C312.722 205.684 313.004 207.069 313.004 207.415C313.004 207.739 312.657 209.233 312.223 210.704C311.638 212.717 311.443 213.734 311.464 214.924C311.464 216.396 311.941 218.755 312.375 219.577C312.483 219.772 312.874 221.092 313.242 222.498C313.632 223.905 314.131 225.723 314.348 226.567C314.651 227.627 314.781 228.882 314.825 230.787C314.847 232.929 314.933 233.665 315.258 234.314C315.757 235.331 316.277 235.288 316.538 234.249C316.624 233.838 316.798 230.614 316.906 227.108C317.101 220.204 317.188 219.685 318.532 215.963C319.508 213.301 319.681 211.613 319.204 209.947C318.944 209.06 318.749 208.713 318.467 208.713C318.185 208.713 318.012 208.41 317.817 207.588C317.687 206.982 316.885 205.251 316.061 203.758C314.326 200.555 314.153 200.079 313.09 195.08C312.657 193.002 311.573 188.414 310.684 184.909C308.884 177.789 308.581 175.884 308.234 169.652C307.93 164.22 307.497 160.909 306.781 158.637C305.784 155.456 304.114 152.664 302.683 151.777C302.163 151.474 301.989 151.236 302.141 151.063C302.271 150.911 301.924 150.305 301.057 149.223C300.342 148.358 298.607 145.955 297.176 143.921C294.141 139.55 292.536 137.732 291.235 137.083C290.715 136.845 289.262 136.455 288.027 136.239C285.88 135.871 285.728 135.806 284.167 134.616C282.281 133.188 278.942 131.5 276.47 130.699C275.516 130.396 273.565 129.941 272.134 129.703C266.063 128.665 262.334 127.128 252.621 121.718C250.127 120.311 247.721 118.991 247.287 118.775C246.507 118.364 242.821 113.689 239.72 109.188C236.858 105.033 234.799 103.605 229.595 102.22C220.728 99.8609 213.746 95.9873 204.705 88.3914C197.095 82.0074 181.831 66.9023 172.508 56.5797C169.256 52.9657 164.096 46.8198 160.908 42.7081C159.478 40.8686 157.7 38.6613 156.962 37.774C156.204 36.8867 155.597 36.1077 155.597 36.0427C155.597 35.9778 156.204 35.9562 156.941 35.9778C158.719 36.086 159.781 35.7398 160.908 34.701C162.036 33.6623 162.86 31.8877 163.207 29.7453C163.445 28.1439 163.445 28.1439 162.881 27.6462C162.079 26.9753 160.345 26.4992 158.61 26.4992C157.353 26.4992 156.962 26.6074 155.662 27.2999C154.859 27.7327 153.797 28.1872 153.32 28.3387L152.474 28.5984L151.954 27.0619C151.152 24.5949 151.39 23.5345 153.558 20.2234C155.553 17.1505 155.553 16.2416 153.515 12.5843C153.147 11.9134 152.453 11.8269 151.304 12.3246Z" fill="white"/>
<path d="M123.508 35.1338C123.508 35.2421 123.66 35.4585 123.876 35.6099C124.202 35.8913 124.202 35.8696 123.963 35.4152C123.703 34.9174 123.508 34.8092 123.508 35.1338Z" fill="white"/>
<circle cx="152.508" cy="50" r="47" stroke="white" stroke-width="6"/>
</g>
</svg>
